{"glyphs":{":":{"x_min":0,"x_max":277,"ha":277,"o":"m 151 545 q 176 545 194 527 q 211 510 211 484 q 211 459 194 441 q 176 424 151 424 q 126 424 109 441 q 91 459 91 484 q 91 509 109 527 q 126 545 151 545 z m 151 107 q 176 107 194 90 q 211 72 211 47 q 211 22 194 4 q 176 -14 151 -14 q 126 -14 109 4 q 91 22 91 47 q 91 72 109 90 q 126 107 151 107 z"},"$":{"x_min":0,"x_max":554,"ha":554,"o":"m 259 769 l 323 769 l 323 715 q 371 707 405 684 q 439 662 470 618 l 417 575 q 380 633 323 646 l 323 402 q 451 334 482 292 q 522 239 522 174 q 522 120 493 75 q 463 31 413 6 q 380 -10 323 -18 l 323 -170 l 259 -170 l 259 -18 q 199 -13 163 1 q 127 16 93 44 q 58 73 35 110 l 87 150 q 155 60 259 50 l 259 352 q 183 390 162 403 q 121 432 101 466 q 81 501 81 546 q 81 590 103 628 q 125 666 162 689 q 200 712 259 718 z m 259 650 q 223 647 200 634 q 178 621 165 598 q 152 575 152 548 q 152 513 172 488 q 200 455 259 428 z m 323 52 q 382 60 418 95 q 453 129 453 172 q 453 214 426 250 q 399 286 323 326 z"},"?":{"x_min":0,"x_max":591,"ha":591,"o":"m 154 523 l 83 523 q 84 622 142 679 q 200 736 297 736 q 393 736 447 688 q 502 640 502 568 q 502 534 487 505 q 472 476 442 452 q 412 429 336 399 q 241 361 221 343 q 200 324 200 297 q 200 269 228 246 q 255 224 299 224 q 348 224 374 248 q 399 273 405 327 l 477 327 q 473 246 426 200 q 379 155 299 155 q 220 155 173 196 q 126 237 126 297 q 126 327 139 353 q 152 379 176 396 q 200 414 265 441 q 371 484 400 505 q 430 527 430 567 q 430 609 394 639 q 358 668 298 668 q 225 668 184 620 q 156 586 154 523 z m 296 107 q 321 107 339 90 q 356 72 356 47 q 356 22 339 4 q 321 -14 296 -14 q 271 -14 254 4 q 236 22 236 47 q 236 72 254 90 q 271 107 296 107 z"},"<":{"x_min":0,"x_max":606,"ha":606,"o":"m 555 169 l 555 98 l 51 327 l 51 391 l 555 621 l 555 549 l 146 358 z"},"'":{"x_min":0,"x_max":198,"ha":198,"o":"m 124 510 l 74 510 l 63 736 l 135 736 z"},"=":{"x_min":0,"x_max":606,"ha":606,"o":"m 550 500 l 550 433 l 56 433 l 56 500 z m 550 285 l 550 218 l 56 218 l 56 285 z"},"a":{"x_min":0,"x_max":683,"ha":683,"o":"m 605 531 l 605 0 l 538 0 l 538 91 q 495 39 442 13 q 388 -14 325 -14 q 212 -14 132 68 q 52 150 52 267 q 52 382 133 463 q 213 545 327 545 q 392 545 445 517 q 498 489 538 434 l 538 531 z m 332 479 q 275 479 227 451 q 178 423 150 372 q 121 321 121 265 q 121 208 150 157 q 179 106 227 77 q 276 49 332 49 q 388 49 438 77 q 488 105 515 154 q 542 202 542 263 q 542 355 482 417 q 421 479 332 479 z"},"L":{"x_min":0,"x_max":462,"ha":462,"o":"m 87 718 l 160 718 l 160 69 l 436 69 l 436 0 l 87 0 z"},"3":{"x_min":0,"x_max":554,"ha":554,"o":"m 132 552 l 59 552 q 79 641 136 688 q 192 736 270 736 q 326 736 374 711 q 423 685 449 642 q 476 598 476 551 q 476 458 384 404 q 436 383 469 342 q 516 285 516 214 q 516 153 483 98 q 451 42 396 12 q 340 -18 271 -18 q 178 -18 116 35 q 54 89 35 192 l 105 192 q 124 123 159 91 q 203 52 272 52 q 350 52 397 99 q 445 146 445 208 q 445 250 421 287 q 397 324 358 342 q 318 361 234 365 l 234 431 q 284 431 324 448 q 365 466 383 493 q 401 520 401 551 q 401 598 364 632 q 327 667 270 667 q 223 667 189 640 q 156 614 132 552 z"},";":{"x_min":0,"x_max":277,"ha":277,"o":"m 151 545 q 176 545 194 527 q 211 510 211 484 q 211 459 194 441 q 176 424 151 424 q 126 424 109 441 q 91 459 91 484 q 91 509 109 527 q 126 545 151 545 z m 144 132 l 210 101 l 111 -84 l 62 -63 z"},"J":{"x_min":0,"x_max":482,"ha":482,"o":"m 322 718 l 395 718 l 395 233 q 395 122 377 78 q 360 34 319 8 q 279 -18 221 -18 q 178 -18 135 -1 q 93 16 42 58 l 80 115 q 136 76 173 60 q 198 49 221 49 q 252 49 277 67 q 302 86 312 117 q 322 147 322 236 z"},"V":{"x_min":0,"x_max":702,"ha":702,"o":"m 33 718 l 111 718 l 349 163 l 591 718 l 669 718 l 356 0 l 341 0 z"},"\"":{"x_min":0,"x_max":309,"ha":309,"o":"m 274 510 l 224 510 l 213 736 l 286 736 z m 85 510 l 34 510 l 23 736 l 96 736 z"},"7":{"x_min":0,"x_max":554,"ha":554,"o":"m 72 718 l 527 718 l 143 -18 l 84 12 l 416 650 l 72 650 z"},"S":{"x_min":0,"x_max":498,"ha":498,"o":"m 13 134 l 74 170 q 139 52 223 52 q 259 52 291 69 q 323 85 339 114 q 356 142 356 174 q 356 210 332 245 q 298 292 208 360 q 119 428 97 458 q 59 509 59 568 q 59 615 81 653 q 104 692 144 714 q 185 736 233 736 q 284 736 328 711 q 372 686 421 619 l 363 574 q 322 628 294 645 q 265 662 231 662 q 188 662 160 636 q 133 609 133 571 q 133 547 143 525 q 152 503 178 478 q 192 464 271 406 q 364 337 399 283 q 434 229 434 175 q 434 97 374 40 q 315 -18 230 -18 q 165 -18 111 17 q 58 52 13 134 z"},"}":{"x_min":0,"x_max":351,"ha":351,"o":"m 314 289 l 314 209 q 285 208 266 198 q 242 184 230 159 q 217 134 215 88 q 214 66 213 -15 q 212 -96 203 -130 q 193 -165 172 -185 q 152 -206 120 -215 q 101 -220 59 -220 l 32 -220 l 32 -144 l 47 -144 q 98 -144 115 -125 q 131 -106 131 -43 q 131 73 135 105 q 142 164 166 197 q 190 230 233 249 q 176 276 153 321 q 131 366 131 469 q 131 577 126 595 q 121 620 106 631 q 90 642 47 642 l 32 642 l 32 718 l 59 718 q 108 718 130 709 q 163 698 183 670 q 203 643 208 598 q 213 566 213 478 q 214 388 223 356 q 233 324 256 307 q 279 290 314 289 z"},"Z":{"x_min":0,"x_max":480,"ha":480,"o":"m 60 649 l 60 718 l 438 718 l 138 70 l 423 70 l 423 0 l 27 0 l 330 649 z"},"x":{"x_min":0,"x_max":480,"ha":480,"o":"m 16 531 l 98 531 l 238 334 l 379 531 l 461 531 l 279 279 l 484 0 l 401 0 l 238 223 l 78 0 l -3 0 l 198 279 z"},")":{"x_min":0,"x_max":369,"ha":369,"o":"m 140 -208 l 61 -208 q 109 -110 137 21 q 166 152 166 291 q 166 420 144 540 q 123 659 84 750 l 160 750 q 196 663 218 545 q 239 427 239 300 q 239 163 213 33 q 188 -97 140 -208 z"},"&":{"x_min":0,"x_max":757,"ha":757,"o":"m 631 266 l 680 214 q 633 172 595 142 q 620 116 667 68 q 704 31 731 0 l 631 0 l 539 96 q 446 26 390 4 q 333 -18 271 -18 q 188 -18 138 30 q 87 77 87 148 q 87 202 121 256 q 155 310 260 393 q 201 464 184 498 q 167 532 167 562 q 167 616 208 651 q 256 692 328 692 q 373 692 410 674 q 447 656 466 626 q 486 595 486 561 q 486 525 460 484 q 435 443 360 380 l 469 266 l 544 191 q 598 236 631 266 z m 316 434 q 368 474 395 513 q 413 541 413 562 q 413 587 389 605 q 365 624 325 624 q 287 624 263 605 q 239 586 239 561 q 239 542 249 524 q 272 483 316 434 z m 307 338 q 216 270 188 229 q 159 188 159 153 q 159 112 194 81 q 229 49 279 49 q 317 49 354 65 q 411 90 490 146 l 373 266 q 343 297 307 338 z"},"_":{"x_min":0,"x_max":500,"ha":500,"o":"m -6 -75 l 506 -75 l 506 -125 l -6 -125 z"},"v":{"x_min":0,"x_max":554,"ha":554,"o":"m 26 531 l 99 531 l 276 145 l 453 531 l 526 531 l 283 0 l 271 0 z"},"O":{"x_min":0,"x_max":869,"ha":869,"o":"m 430 736 q 593 736 703 627 q 812 519 812 359 q 812 202 703 92 q 593 -18 436 -18 q 276 -18 166 91 q 56 201 56 356 q 56 459 106 548 q 156 636 243 686 q 329 736 430 736 z m 433 666 q 354 666 282 625 q 211 583 171 513 q 131 442 131 356 q 131 228 219 140 q 308 52 433 52 q 517 52 588 92 q 659 133 698 203 q 738 273 738 359 q 738 445 698 514 q 659 583 586 625 q 514 666 433 666 z"},"(":{"x_min":0,"x_max":369,"ha":369,"o":"m 229 750 l 309 750 q 261 652 232 521 q 203 390 203 251 q 203 122 225 2 q 247 -117 285 -208 l 209 -208 q 173 -121 152 -3 q 130 114 130 242 q 130 379 156 509 q 181 639 229 750 z"},"C":{"x_min":0,"x_max":813,"ha":813,"o":"m 756 585 l 700 542 q 653 603 587 634 q 521 666 443 666 q 357 666 284 624 q 210 583 170 513 q 130 444 130 357 q 130 226 220 138 q 310 50 447 50 q 598 50 700 168 l 756 125 q 703 57 622 19 q 542 -18 443 -18 q 254 -18 146 107 q 54 213 54 363 q 54 521 165 629 q 275 736 442 736 q 542 736 624 697 q 705 657 756 585 z"},"W":{"x_min":0,"x_max":960,"ha":960,"o":"m 47 718 l 121 718 l 267 201 l 473 718 l 487 718 l 691 201 l 840 718 l 913 718 l 707 0 l 693 0 l 480 543 l 263 0 l 250 0 z"},"A":{"x_min":0,"x_max":740,"ha":740,"o":"m 381 718 l 716 0 l 639 0 l 526 236 l 216 236 l 104 0 l 24 0 l 363 718 z m 372 566 l 249 306 l 494 306 z"},"f":{"x_min":0,"x_max":314,"ha":314,"o":"m 295 736 l 295 669 q 257 686 230 686 q 210 686 197 677 q 184 669 181 659 q 177 648 177 603 l 177 531 l 288 531 l 288 473 l 177 473 l 177 0 l 108 0 l 108 473 l 39 473 l 39 531 l 108 531 l 108 614 q 108 671 119 696 q 129 720 155 735 q 180 750 215 750 q 249 750 295 736 z"},"Q":{"x_min":0,"x_max":871,"ha":871,"o":"m 690 78 l 796 -57 l 708 -57 l 635 36 q 547 -18 437 -18 q 277 -18 167 91 q 57 201 57 356 q 57 459 107 548 q 158 637 244 687 q 331 736 435 736 q 594 736 704 627 q 813 518 813 359 q 813 276 783 207 q 753 138 690 78 z m 646 134 q 739 226 739 359 q 739 445 699 514 q 660 583 587 625 q 515 666 435 666 q 354 666 283 625 q 212 583 172 513 q 132 442 132 356 q 132 228 220 140 q 309 52 434 52 q 519 52 590 93 l 430 296 l 517 296 z"},"w":{"x_min":0,"x_max":831,"ha":831,"o":"m 4 531 l 75 531 l 237 146 l 408 531 l 420 531 l 590 146 l 755 531 l 827 531 l 596 0 l 583 0 l 414 380 l 244 0 l 231 0 z"},"-":{"x_min":0,"x_max":332,"ha":332,"o":"m 32 300 l 300 300 l 300 240 l 32 240 z"},"E":{"x_min":0,"x_max":536,"ha":536,"o":"m 88 718 l 500 718 l 500 647 l 160 647 l 160 423 l 497 423 l 497 353 l 160 353 l 160 71 l 497 71 l 497 0 l 88 0 z"},"s":{"x_min":0,"x_max":388,"ha":388,"o":"m 343 473 l 299 428 q 245 481 192 481 q 159 481 135 459 q 112 437 112 408 q 112 382 131 358 q 151 334 213 302 q 290 263 317 226 q 344 189 344 143 q 344 77 298 32 q 252 -14 183 -14 q 137 -14 95 6 q 54 26 26 62 l 69 110 q 122 51 180 51 q 221 51 250 78 q 279 104 279 140 q 279 169 260 192 q 241 214 174 249 q 102 286 76 322 q 50 358 50 404 q 50 465 92 505 q 133 545 196 545 q 269 545 343 473 z"},">":{"x_min":0,"x_max":606,"ha":606,"o":"m 51 169 l 460 358 l 51 549 l 51 621 l 555 391 l 555 327 l 51 98 z"},"l":{"x_min":0,"x_max":200,"ha":200,"o":"m 66 736 l 134 736 l 134 0 l 66 0 z"},"8":{"x_min":0,"x_max":554,"ha":554,"o":"m 384 394 q 457 358 489 312 q 520 265 520 206 q 520 123 466 60 q 399 -18 276 -18 q 157 -18 95 50 q 34 118 34 200 q 34 260 66 308 q 98 356 173 394 q 121 421 94 462 q 68 502 68 549 q 68 596 96 640 q 124 685 174 711 q 223 736 281 736 q 337 736 385 710 q 433 685 460 640 q 487 596 487 547 q 487 498 461 460 q 436 422 384 394 z m 277 667 q 218 667 179 632 q 141 597 141 548 q 141 500 182 462 q 224 423 280 423 q 315 423 347 440 q 379 458 397 489 q 415 519 415 550 q 415 593 379 630 q 344 667 277 667 z m 281 358 q 207 358 156 310 q 106 262 106 198 q 106 158 127 123 q 149 88 188 69 q 226 50 277 50 q 355 50 402 96 q 448 143 448 205 q 448 265 399 311 q 350 358 281 358 z"},"\\":{"x_min":0,"x_max":605,"ha":605,"o":"m 107 736 l 572 -98 l 498 -98 l 32 736 z"},"e":{"x_min":0,"x_max":650,"ha":650,"o":"m 523 176 l 581 146 q 553 90 516 56 q 479 22 432 4 q 386 -14 327 -14 q 197 -14 124 72 q 51 157 51 264 q 51 365 113 444 q 191 545 323 545 q 459 545 540 442 q 598 369 599 260 l 121 260 q 123 167 180 108 q 237 49 321 49 q 362 49 400 63 q 438 77 465 101 q 492 124 523 176 z m 523 319 q 510 374 484 407 q 458 439 415 459 q 372 479 324 479 q 246 479 190 429 q 149 393 128 319 z"},"b":{"x_min":0,"x_max":682,"ha":682,"o":"m 81 0 l 81 736 l 148 736 l 148 440 q 191 493 245 519 q 298 545 361 545 q 474 545 554 463 q 634 381 634 265 q 634 149 553 68 q 473 -14 359 -14 q 294 -14 242 14 q 189 42 148 98 l 148 0 z m 354 52 q 411 52 459 80 q 508 108 536 159 q 565 210 565 267 q 565 323 536 375 q 507 426 459 454 q 410 483 355 483 q 299 483 248 454 q 198 426 171 377 q 144 329 144 269 q 144 176 204 114 q 265 52 354 52 z"},"%":{"x_min":0,"x_max":775,"ha":775,"o":"m 674 750 l 151 -50 l 86 -50 l 562 679 q 478 658 356 658 l 330 659 q 360 617 360 570 q 360 503 314 450 q 267 397 190 397 q 119 397 71 447 q 22 496 22 566 q 22 613 44 651 q 66 689 107 713 q 147 736 190 736 q 208 736 250 728 q 313 714 387 714 q 442 714 490 721 q 539 728 617 750 z m 191 674 q 147 674 116 643 q 84 611 84 567 q 84 522 116 491 q 147 460 191 460 q 236 460 267 491 q 299 522 299 567 q 299 611 267 643 q 236 674 191 674 z m 583 317 q 653 317 703 267 q 752 218 752 148 q 752 78 703 29 q 653 -21 583 -21 q 514 -21 464 29 q 415 78 415 148 q 415 218 464 267 q 514 317 583 317 z m 583 255 q 539 255 508 224 q 477 192 477 148 q 477 104 508 72 q 539 41 583 41 q 628 41 659 72 q 691 104 691 148 q 691 192 659 224 q 628 255 583 255 z"},"m":{"x_min":0,"x_max":938,"ha":938,"o":"m 76 531 l 144 531 l 144 439 q 179 490 217 514 q 269 545 326 545 q 364 545 399 530 q 434 515 456 490 q 478 464 494 417 q 528 480 579 512 q 630 545 689 545 q 745 545 787 517 q 829 489 850 439 q 870 390 870 290 l 870 0 l 800 0 l 800 290 q 800 375 788 407 q 776 439 746 459 q 717 479 676 479 q 626 479 585 449 q 543 420 524 371 q 505 322 505 208 l 505 0 l 438 0 l 438 272 q 438 368 426 403 q 414 437 384 458 q 354 479 313 479 q 266 479 224 450 q 183 421 163 373 q 144 325 144 225 l 144 0 l 76 0 z"},"#":{"x_min":0,"x_max":720,"ha":720,"o":"m 602 294 l 602 241 l 481 241 l 446 0 l 391 0 l 426 241 l 264 241 l 227 0 l 173 0 l 210 241 l 90 241 l 90 294 l 218 294 l 243 457 l 120 457 l 120 510 l 251 510 l 285 739 l 337 739 l 304 510 l 466 510 l 500 739 l 554 739 l 521 510 l 630 510 l 630 457 l 513 457 l 489 294 z m 459 457 l 296 457 l 272 294 l 434 294 z"},",":{"x_min":0,"x_max":277,"ha":277,"o":"m 144 132 l 210 101 l 111 -84 l 62 -63 z"},"n":{"x_min":0,"x_max":610,"ha":610,"o":"m 76 531 l 145 531 l 145 436 q 186 491 235 518 q 285 545 344 545 q 403 545 449 515 q 496 484 518 433 q 540 382 540 273 l 540 0 l 472 0 l 472 253 q 472 345 464 376 q 452 429 418 455 q 384 482 330 482 q 268 482 219 441 q 170 400 154 339 q 145 300 145 195 l 145 0 l 76 0 z"},"h":{"x_min":0,"x_max":610,"ha":610,"o":"m 76 736 l 145 736 l 145 436 q 186 491 236 518 q 286 545 344 545 q 403 545 449 515 q 496 484 518 433 q 540 382 540 273 l 540 0 l 471 0 l 471 253 q 471 345 464 376 q 451 429 418 455 q 384 482 330 482 q 268 482 219 441 q 170 400 154 339 q 145 300 145 195 l 145 0 l 76 0 z"},"z":{"x_min":0,"x_max":425,"ha":425,"o":"m 33 531 l 423 531 l 122 61 l 413 61 l 413 0 l 4 0 l 305 471 l 33 471 z"},"B":{"x_min":0,"x_max":574,"ha":574,"o":"m 89 718 l 231 718 q 316 718 362 698 q 408 678 435 636 q 461 594 461 542 q 461 495 438 455 q 415 416 369 392 q 425 373 456 347 q 486 321 503 285 q 520 249 520 206 q 520 120 456 60 q 393 0 287 0 l 89 0 z m 160 648 l 160 418 l 201 418 q 275 418 311 432 q 346 446 366 476 q 387 506 387 542 q 387 592 352 620 q 318 648 243 648 z m 160 346 l 160 70 l 249 70 q 327 70 364 86 q 400 101 423 134 q 445 167 445 205 q 445 252 414 288 q 382 324 328 337 q 291 346 200 346 z"},"K":{"x_min":0,"x_max":591,"ha":591,"o":"m 87 718 l 161 718 l 161 449 l 447 718 l 544 718 l 199 396 l 571 0 l 476 0 l 161 335 l 161 0 l 87 0 z"},"R":{"x_min":0,"x_max":607,"ha":607,"o":"m 91 718 l 234 718 q 354 718 396 708 q 460 694 500 646 q 541 598 541 527 q 541 469 513 424 q 485 380 434 357 q 383 334 292 334 l 551 0 l 462 0 l 204 334 l 163 334 l 163 0 l 91 0 z m 163 648 l 163 404 l 287 403 q 358 403 393 417 q 427 430 447 460 q 466 490 466 527 q 466 563 446 593 q 427 623 395 635 q 363 648 290 648 z"},"T":{"x_min":0,"x_max":426,"ha":426,"o":"m 16 648 l 16 718 l 410 718 l 410 648 l 250 648 l 250 0 l 177 0 l 177 648 z"},"P":{"x_min":0,"x_max":592,"ha":592,"o":"m 87 718 l 230 718 q 353 718 396 708 q 458 692 497 645 q 536 598 536 527 q 536 455 498 408 q 459 362 393 346 q 344 334 210 334 l 159 334 l 159 0 l 87 0 z m 159 648 l 159 404 l 280 403 q 354 403 388 416 q 422 430 442 460 q 461 490 461 527 q 461 563 442 593 q 422 623 390 636 q 358 648 286 648 z"},"|":{"x_min":0,"x_max":672,"ha":672,"o":"m 301 736 l 371 736 l 371 -194 l 301 -194 z"},"t":{"x_min":0,"x_max":339,"ha":339,"o":"m 136 729 l 205 729 l 205 531 l 313 531 l 313 473 l 205 473 l 205 0 l 136 0 l 136 473 l 42 473 l 42 531 l 136 531 z"},"M":{"x_min":0,"x_max":919,"ha":919,"o":"m 55 0 l 157 718 l 168 718 l 460 129 l 750 718 l 761 718 l 864 0 l 793 0 l 723 514 l 469 0 l 451 0 l 194 518 l 124 0 z"},"g":{"x_min":0,"x_max":673,"ha":673,"o":"m 534 531 l 603 531 l 603 108 q 603 -4 583 -56 q 556 -129 490 -168 q 423 -208 330 -208 q 262 -208 207 -189 q 153 -169 119 -137 q 84 -104 56 -42 l 130 -42 q 160 -95 208 -120 q 256 -146 327 -146 q 396 -146 445 -119 q 493 -93 513 -54 q 534 -14 534 74 l 534 101 q 495 52 439 26 q 384 0 321 0 q 248 0 184 36 q 119 73 84 134 q 49 196 49 270 q 49 343 85 407 q 122 471 187 508 q 251 545 323 545 q 383 545 434 520 q 486 496 534 439 z m 332 479 q 274 479 224 451 q 174 423 146 373 q 118 324 118 266 q 118 179 176 122 q 235 64 328 64 q 422 64 480 121 q 537 178 537 270 q 537 330 511 377 q 484 424 436 452 q 388 479 332 479 z"},"j":{"x_min":0,"x_max":203,"ha":203,"o":"m 102 750 q 125 750 141 733 q 158 717 158 693 q 158 670 141 654 q 125 637 102 637 q 78 637 62 654 q 45 670 45 693 q 45 717 62 733 q 78 750 102 750 z m 68 531 l 137 531 l 137 -80 q 137 -147 113 -177 q 89 -208 47 -208 q 12 -208 -31 -191 l -31 -130 q -4 -144 18 -144 q 46 -144 60 -121 q 68 -106 68 -60 z"},"i":{"x_min":0,"x_max":200,"ha":200,"o":"m 100 750 q 124 750 140 733 q 157 717 157 693 q 157 670 140 654 q 124 637 100 637 q 77 637 61 654 q 44 670 44 693 q 44 717 61 733 q 77 750 100 750 z m 66 531 l 135 531 l 135 0 l 66 0 z"},"y":{"x_min":0,"x_max":536,"ha":536,"o":"m 19 531 l 91 531 l 274 122 l 451 531 l 524 531 l 207 -194 l 135 -194 l 237 40 z"},"@":{"x_min":0,"x_max":867,"ha":867,"o":"m 705 147 l 757 147 q 691 65 636 33 q 557 -13 456 -13 q 349 -13 258 37 q 168 88 117 175 q 67 263 67 366 q 67 471 118 562 q 169 652 257 702 q 345 752 449 752 q 597 752 698 657 q 800 563 800 438 q 800 346 758 280 q 715 214 643 177 q 588 149 549 149 q 521 149 504 164 q 491 175 491 203 q 474 182 445 168 q 416 154 385 154 q 314 154 269 202 q 223 251 223 331 q 223 417 278 489 q 334 560 432 560 q 475 560 504 544 q 533 528 559 488 l 571 555 l 624 555 l 567 236 q 565 220 565 216 q 565 205 572 198 q 579 192 589 192 q 618 192 664 225 q 710 259 736 311 q 762 364 762 428 q 762 552 666 633 q 576 709 447 709 q 351 709 273 665 q 195 622 150 542 q 105 463 105 371 q 105 277 150 198 q 196 120 276 75 q 356 30 453 30 q 524 30 582 55 q 639 81 705 147 z m 409 209 q 441 209 470 229 q 498 250 515 290 q 536 343 536 397 q 536 446 509 477 q 481 508 437 508 q 378 508 336 460 q 293 412 293 340 q 293 280 325 244 q 358 209 409 209 z"},".":{"x_min":0,"x_max":277,"ha":277,"o":"m 151 107 q 176 107 194 90 q 211 72 211 47 q 211 22 194 4 q 176 -14 151 -14 q 126 -14 109 4 q 91 22 91 47 q 91 72 109 90 q 126 107 151 107 z"},"p":{"x_min":0,"x_max":682,"ha":682,"o":"m 77 531 l 145 531 l 145 434 q 186 489 238 517 q 291 545 356 545 q 469 545 550 463 q 630 382 630 267 q 630 150 551 68 q 471 -14 358 -14 q 294 -14 241 13 q 188 39 145 91 l 145 -194 l 77 -194 z m 351 479 q 262 479 201 417 q 140 355 140 263 q 140 202 167 154 q 194 105 245 77 q 295 49 352 49 q 407 49 455 77 q 504 106 533 157 q 562 208 562 265 q 562 321 533 372 q 504 423 456 451 q 408 479 351 479 z"},"X":{"x_min":0,"x_max":609,"ha":609,"o":"m 49 718 l 133 718 l 305 438 l 479 718 l 562 718 l 348 370 l 576 0 l 492 0 l 305 301 l 118 0 l 34 0 l 263 370 z"},"*":{"x_min":0,"x_max":425,"ha":425,"o":"m 180 736 l 244 736 l 229 591 l 350 677 l 382 623 l 247 562 l 382 501 l 350 446 l 229 531 l 244 386 l 180 386 l 195 531 l 75 446 l 43 501 l 180 562 l 43 623 l 75 677 l 195 591 z"},"Y":{"x_min":0,"x_max":592,"ha":592,"o":"m 31 718 l 114 718 l 297 422 l 478 718 l 561 718 l 333 343 l 333 0 l 263 0 l 263 343 z"},"c":{"x_min":0,"x_max":647,"ha":647,"o":"m 592 421 l 538 387 q 467 480 346 480 q 249 480 184 418 q 120 355 120 266 q 120 208 150 157 q 179 105 231 77 q 282 49 346 49 q 463 49 538 142 l 592 106 q 554 49 490 18 q 425 -14 343 -14 q 217 -14 134 66 q 51 146 51 261 q 51 338 90 405 q 129 471 197 508 q 265 545 349 545 q 401 545 450 529 q 500 513 534 487 q 568 461 592 421 z"},"!":{"x_min":0,"x_max":295,"ha":295,"o":"m 182 736 l 182 180 l 111 180 l 111 736 z m 147 107 q 172 107 190 90 q 208 72 208 47 q 208 22 190 4 q 172 -14 147 -14 q 123 -14 105 4 q 87 22 87 47 q 87 72 105 90 q 123 107 147 107 z"},"/":{"x_min":0,"x_max":437,"ha":437,"o":"m 408 736 l 110 -98 l 35 -98 l 333 736 z"},"[":{"x_min":0,"x_max":351,"ha":351,"o":"m 142 736 l 306 736 l 306 667 l 210 667 l 210 -127 l 306 -127 l 306 -194 l 142 -194 z"},"6":{"x_min":0,"x_max":554,"ha":554,"o":"m 367 736 l 426 698 l 232 404 q 271 417 305 417 q 391 417 450 355 q 510 293 510 203 q 510 141 481 91 q 452 41 399 11 q 346 -18 285 -18 q 226 -18 176 10 q 125 39 96 91 q 67 143 67 202 q 67 246 85 294 q 103 343 149 411 z m 288 354 q 226 354 181 310 q 137 266 137 203 q 137 140 181 96 q 226 52 288 52 q 351 52 395 96 q 439 140 439 203 q 439 266 395 310 q 351 354 288 354 z"},"r":{"x_min":0,"x_max":301,"ha":301,"o":"m 50 531 l 120 531 l 120 454 q 151 500 186 522 q 221 545 258 545 q 287 545 319 527 l 283 469 q 262 479 247 479 q 213 479 181 450 q 149 422 133 363 q 120 318 120 180 l 120 0 l 50 0 z"},"2":{"x_min":0,"x_max":554,"ha":554,"o":"m 116 493 l 47 493 q 50 600 118 668 q 186 736 286 736 q 385 736 447 672 q 508 608 508 521 q 508 460 479 407 q 449 354 365 262 l 186 69 l 518 69 l 518 0 l 30 0 l 304 296 q 388 386 413 429 q 438 472 438 520 q 438 581 393 624 q 348 668 282 668 q 213 668 168 622 q 122 576 116 493 z"},"{":{"x_min":0,"x_max":351,"ha":351,"o":"m 37 289 q 66 290 85 300 q 109 314 121 339 q 134 364 136 410 q 137 432 138 513 q 139 593 148 628 q 158 663 179 683 q 199 704 231 713 q 250 718 292 718 l 319 718 l 319 642 l 304 642 q 253 642 237 623 q 220 604 220 541 q 220 427 217 396 q 210 336 188 304 q 166 272 118 249 q 172 226 196 180 q 220 134 220 29 q 220 -65 222 -82 q 225 -108 234 -123 q 241 -132 256 -138 q 271 -144 319 -144 l 319 -220 l 292 -220 q 243 -220 221 -212 q 188 -200 168 -173 q 148 -146 143 -100 q 138 -68 138 20 q 137 110 128 142 q 118 173 95 191 q 72 208 37 209 z"},"9":{"x_min":0,"x_max":554,"ha":554,"o":"m 192 -18 l 133 20 l 327 314 q 288 301 253 301 q 168 301 108 363 q 49 425 49 515 q 49 577 78 627 q 106 677 159 707 q 212 736 273 736 q 333 736 383 708 q 434 679 462 627 q 491 575 491 517 q 491 472 473 424 q 456 375 410 307 z m 270 364 q 333 364 377 408 q 421 453 421 515 q 421 578 377 622 q 333 666 270 666 q 208 666 163 622 q 119 578 119 515 q 119 453 163 408 q 208 364 270 364 z"}," ":{"x_min":0,"x_max":277,"ha":277,"o":""},"I":{"x_min":0,"x_max":226,"ha":226,"o":"m 77 718 l 149 718 l 149 0 l 77 0 z"},"H":{"x_min":0,"x_max":683,"ha":683,"o":"m 86 718 l 159 718 l 159 417 l 524 417 l 524 718 l 596 718 l 596 0 l 524 0 l 524 347 l 159 347 l 159 0 l 86 0 z"},"4":{"x_min":0,"x_max":554,"ha":554,"o":"m 426 736 l 440 736 l 440 236 l 527 236 l 527 167 l 440 167 l 440 0 l 369 0 l 369 167 l 25 167 z m 369 236 l 369 535 l 157 236 z"},"~":{"x_min":0,"x_max":606,"ha":606,"o":"m 551 409 l 551 330 q 496 299 472 291 q 449 283 428 283 q 381 283 298 320 q 234 350 216 355 q 198 361 183 361 q 161 361 135 352 q 109 342 55 310 l 55 388 q 108 418 132 426 q 156 435 179 435 q 226 435 310 395 q 367 368 388 361 q 410 354 427 354 q 447 354 468 363 q 489 371 551 409 z"},"D":{"x_min":0,"x_max":744,"ha":744,"o":"m 87 0 l 87 718 l 236 718 q 397 718 470 692 q 575 656 634 565 q 692 475 692 350 q 692 242 646 160 q 599 78 525 39 q 450 0 316 0 z m 156 68 l 239 68 q 388 68 446 86 q 527 113 573 181 q 620 250 620 349 q 620 453 569 527 q 519 601 429 628 q 362 648 207 648 l 156 648 z"},"^":{"x_min":0,"x_max":672,"ha":672,"o":"m 307 718 l 365 718 l 614 178 l 549 178 l 334 643 l 122 178 l 59 178 z"},"0":{"x_min":0,"x_max":554,"ha":554,"o":"m 32 359 q 32 501 62 579 q 93 656 148 696 q 204 736 273 736 q 343 736 399 696 q 456 656 489 575 q 522 495 522 359 q 522 224 490 144 q 457 63 400 23 q 343 -18 273 -18 q 204 -18 149 21 q 94 61 63 139 q 32 218 32 359 z m 100 357 q 100 236 121 174 q 143 111 186 79 q 228 47 275 47 q 323 47 365 78 q 406 110 428 173 q 455 250 455 357 q 455 466 431 535 q 407 604 365 636 q 322 668 275 668 q 228 668 186 636 q 144 604 122 542 q 100 479 100 357 z"},"F":{"x_min":0,"x_max":485,"ha":485,"o":"m 87 718 l 447 718 l 447 647 l 159 647 l 159 423 l 447 423 l 447 352 l 159 352 l 159 0 l 87 0 z"},"`":{"x_min":0,"x_max":378,"ha":378,"o":"m 159 780 l 266 630 l 198 630 l 54 780 z"},"k":{"x_min":0,"x_max":502,"ha":502,"o":"m 76 736 l 145 736 l 145 317 l 390 531 l 491 531 l 199 278 l 508 0 l 411 0 l 145 239 l 145 0 l 76 0 z"},"u":{"x_min":0,"x_max":608,"ha":608,"o":"m 67 531 l 136 531 l 136 283 q 136 192 146 158 q 161 109 202 81 q 243 53 300 53 q 357 53 397 80 q 437 108 452 153 q 462 184 462 283 l 462 531 l 532 531 l 532 271 q 532 161 507 105 q 481 49 429 18 q 378 -14 300 -14 q 223 -14 171 18 q 119 49 93 106 q 67 162 67 275 z"},"]":{"x_min":0,"x_max":351,"ha":351,"o":"m 209 -194 l 45 -194 l 45 -125 l 141 -125 l 141 669 l 45 669 l 45 736 l 209 736 z"},"U":{"x_min":0,"x_max":655,"ha":655,"o":"m 90 718 l 162 718 l 162 285 q 162 208 165 188 q 170 146 189 117 q 209 89 250 70 q 290 50 331 50 q 367 50 399 65 q 432 81 454 107 q 476 134 486 172 q 494 200 494 285 l 494 718 l 565 718 l 565 285 q 565 188 547 129 q 528 70 471 26 q 415 -18 335 -18 q 248 -18 186 23 q 124 65 103 133 q 90 175 90 285 z"},"o":{"x_min":0,"x_max":655,"ha":655,"o":"m 328 545 q 450 545 531 456 q 604 375 604 264 q 604 153 527 70 q 449 -14 328 -14 q 206 -14 128 70 q 51 153 51 264 q 51 375 124 456 q 205 545 328 545 z m 328 478 q 243 478 182 415 q 121 352 121 263 q 121 205 148 155 q 176 105 224 78 q 271 51 328 51 q 384 51 432 78 q 479 105 507 155 q 535 205 535 263 q 535 352 473 415 q 412 478 328 478 z"},"N":{"x_min":0,"x_max":740,"ha":740,"o":"m 88 0 l 88 718 l 104 718 l 581 168 l 581 718 l 652 718 l 652 0 l 636 0 l 162 543 l 162 0 z"},"+":{"x_min":0,"x_max":606,"ha":606,"o":"m 270 393 l 270 604 l 336 604 l 336 393 l 550 393 l 550 326 l 336 326 l 336 114 l 270 114 l 270 326 l 56 326 l 56 393 z"},"G":{"x_min":0,"x_max":872,"ha":872,"o":"m 780 598 l 725 545 q 665 604 593 635 q 521 665 454 665 q 369 665 293 624 q 216 582 174 511 q 132 440 132 361 q 132 280 176 207 q 219 134 296 92 q 373 50 464 50 q 575 50 651 113 q 728 175 742 275 l 513 275 l 513 344 l 823 344 q 822 178 724 80 q 626 -18 462 -18 q 263 -18 146 118 q 57 222 57 359 q 57 461 108 549 q 160 637 249 687 q 338 736 451 736 q 542 736 623 703 q 704 670 780 598 z"},"q":{"x_min":0,"x_max":682,"ha":682,"o":"m 605 531 l 605 -194 l 538 -194 l 538 91 q 495 39 441 13 q 388 -14 324 -14 q 211 -14 132 68 q 52 150 52 267 q 52 382 132 463 q 213 545 326 545 q 392 545 445 517 q 498 489 538 434 l 538 531 z m 332 479 q 274 479 226 451 q 178 423 149 372 q 121 321 121 265 q 121 208 149 157 q 178 106 227 77 q 275 49 331 49 q 387 49 438 77 q 488 105 515 154 q 542 202 542 263 q 542 355 481 417 q 420 479 332 479 z"},"d":{"x_min":0,"x_max":685,"ha":685,"o":"m 606 736 l 606 0 l 539 0 l 539 91 q 496 39 443 13 q 389 -14 326 -14 q 213 -14 133 68 q 53 150 53 267 q 53 382 134 463 q 214 545 328 545 q 393 545 446 517 q 499 489 539 434 l 539 736 z m 333 479 q 276 479 228 451 q 179 423 151 372 q 122 321 122 265 q 122 208 151 157 q 180 106 228 77 q 277 49 333 49 q 389 49 439 77 q 489 105 516 154 q 543 202 543 263 q 543 355 483 417 q 422 479 333 479 z"},"1":{"x_min":0,"x_max":554,"ha":554,"o":"m 185 718 l 326 718 l 326 0 l 255 0 l 255 648 l 142 648 z"},"5":{"x_min":0,"x_max":554,"ha":554,"o":"m 492 718 l 492 650 l 236 650 l 200 454 q 247 468 285 468 q 383 468 447 402 q 510 336 510 234 q 510 163 478 104 q 445 45 389 13 q 333 -18 260 -18 q 172 -18 112 35 q 52 89 41 174 l 114 174 q 123 132 142 106 q 162 81 195 65 q 228 49 264 49 q 335 49 386 103 q 437 156 437 237 q 437 310 391 355 q 345 400 268 400 q 205 400 114 362 l 181 718 z"}}}
